# xmcd
#
# Track frame offsets:
#	150
#	13899
#	28848
#	39958
#	52972
#	66035
#	80470
#	95814
#	112635
#	125883
#	140093
#	154218
#	165848
#	179302
#	192769
#	210203
#	223630
#	239937
#	250819
#	267140
#
# Disc length: 3737 seconds
#
# Revision: 1
# Processed by: cddbd v1.5.1PL0 Copyright (c) Steve Scherf et al.
# Submitted via: audiograbber 1.82.01
#
DISCID=170e9714
DTITLE=Ben Steneker - All time favourites
DYEAR=2004
DGENRE=Country
TTITLE0=You can't take it with you
TTITLE1=Run away
TTITLE2=Nueva Rosita
TTITLE3=Home sweet home
TTITLE4=Country pride
TTITLE5=Someone is looking for someone like you
TTITLE6=Lay down beside me
TTITLE7=Colorado
TTITLE8=Darling i love you
TTITLE9=Some days
TTITLE10=The hand that rocks the cradle
TTITLE11=Please, mister Atkins
TTITLE12=Rose of my heart
TTITLE13=This ain't the Denver i remember
TTITLE14=Ain't it a beautiful world
TTITLE15=Donna Carmela
TTITLE16=We believe in happy endings
TTITLE17=What i really need
TTITLE18=Lookin'over hills and over mountains
TTITLE19=Let me live with love
EXTD=
EXTT0=
EXTT1=
EXTT2=
EXTT3=
EXTT4=
EXTT5=
EXTT6=
EXTT7=
EXTT8=
EXTT9=
EXTT10=
EXTT11=
EXTT12=
EXTT13=
EXTT14=
EXTT15=
EXTT16=
EXTT17=
EXTT18=
EXTT19=
PLAYORDER=
